<svg xmlns="http://www.w3.org/2000/svg" xmlns:xlink="http://www.w3.org/1999/xlink" width="500" zoomAndPan="magnify" viewBox="0 0 375 374.999991" height="500" preserveAspectRatio="xMidYMid meet" version="1.0"><path fill="#ffffff" d="M 187.5 0 C 83.945312 0 0 83.945312 0 187.5 C 0 291.050781 83.945312 375 187.5 375 C 291.050781 375 375 291.050781 375 187.5 C 374.894531 83.988281 291.011719 0.105469 187.5 0 Z M 313.136719 303.621094 C 298.640625 294.71875 283.214844 287.429688 267.128906 281.886719 C 278.296875 254.464844 284.402344 225.25 285.15625 195.648438 L 358.488281 195.648438 C 356.589844 235.863281 340.527344 274.113281 313.136719 303.621094 Z M 16.511719 195.648438 L 89.84375 195.648438 C 90.597656 225.25 96.703125 254.464844 107.871094 281.886719 C 91.789062 287.4375 76.359375 294.71875 61.851562 303.609375 C 34.472656 274.101562 18.410156 235.863281 16.511719 195.648438 Z M 61.871094 71.367188 C 76.371094 80.25 91.792969 87.53125 107.871094 93.082031 C 96.703125 120.515625 90.597656 149.742188 89.84375 179.347656 L 16.511719 179.347656 C 18.410156 139.128906 34.476562 100.878906 61.871094 71.367188 Z M 179.347656 89.414062 C 162.996094 88.957031 146.734375 86.753906 130.851562 82.84375 C 142.992188 58.9375 159.433594 37.476562 179.347656 19.53125 Z M 179.347656 105.714844 L 179.347656 179.347656 L 106.15625 179.347656 C 106.972656 151.34375 112.964844 123.734375 123.820312 97.90625 C 141.972656 102.621094 160.597656 105.238281 179.347656 105.714844 Z M 179.347656 195.648438 L 179.347656 269.285156 C 160.582031 269.746094 141.925781 272.359375 123.753906 277.078125 C 112.9375 251.246094 106.980469 223.628906 106.175781 195.632812 Z M 179.347656 285.585938 L 179.347656 355.476562 C 159.367188 337.566406 142.898438 316.089844 130.769531 292.15625 C 146.683594 288.238281 162.964844 286.035156 179.347656 285.585938 Z M 195.648438 285.585938 C 211.996094 286.035156 228.25 288.226562 244.136719 292.128906 C 231.996094 316.023438 215.5625 337.476562 195.648438 355.410156 Z M 195.648438 269.285156 L 195.648438 195.648438 L 268.84375 195.648438 C 268.023438 223.640625 262.03125 251.238281 251.171875 277.054688 C 233.019531 272.355469 214.394531 269.746094 195.648438 269.285156 Z M 195.648438 179.347656 L 195.648438 105.714844 C 214.394531 105.246094 233.027344 102.632812 251.171875 97.921875 C 262.03125 123.75 268.023438 151.359375 268.84375 179.367188 Z M 195.648438 89.414062 L 195.648438 19.550781 C 215.566406 37.5 232 58.960938 244.140625 82.863281 C 228.257812 86.765625 212.003906 88.960938 195.648438 89.414062 Z M 219.140625 19.277344 C 249.589844 25.019531 277.910156 38.933594 301.054688 59.542969 C 288.175781 67.136719 274.539062 73.363281 260.371094 78.132812 C 249.726562 56.519531 235.824219 36.667969 219.140625 19.277344 Z M 114.621094 78.121094 C 100.457031 73.347656 86.824219 67.125 73.941406 59.546875 C 97.085938 38.941406 125.402344 25.023438 155.859375 19.285156 C 139.175781 36.667969 125.265625 56.507812 114.621094 78.121094 Z M 114.621094 296.851562 C 125.273438 318.480469 139.195312 338.332031 155.886719 355.722656 C 125.414062 349.984375 97.070312 336.058594 73.914062 315.433594 C 86.804688 307.84375 100.445312 301.617188 114.621094 296.851562 Z M 260.371094 296.851562 C 274.546875 301.621094 288.1875 307.855469 301.070312 315.445312 C 277.902344 336.074219 249.5625 350.003906 219.074219 355.734375 C 235.785156 338.34375 249.714844 318.480469 260.371094 296.847656 Z M 285.15625 179.355469 C 284.40625 149.746094 278.296875 120.519531 267.121094 93.09375 C 283.199219 87.542969 298.621094 80.253906 313.117188 71.367188 C 340.515625 100.875 356.589844 139.128906 358.488281 179.355469 Z M 285.15625 179.355469 " fill-opacity="1" fill-rule="nonzero"/><path stroke-linecap="butt" transform="matrix(0.75, 0, 0, 0.75, 127.499996, 185.999988)" fill="none" stroke-linejoin="miter" d="M 0.00000516333 2.000016 L 160.000016 2.000016 " stroke="#ffffff" stroke-width="4" stroke-opacity="1" stroke-miterlimit="4"/></svg>